<svg width="105" height="53" viewBox="0 0 105 53" fill="none" xmlns="http://www.w3.org/2000/svg">
<path d="M33 27.7714H0.978259V0.51429H33V27.7714ZM22.2391 18.7714V9.5143H11.7391V18.7714H22.2391ZM38.2174 33.8786V0H49.6304V33.8786H38.2174ZM0 43.65C5.86956 42.75 10.6957 41.2715 14.3478 39.2786C17.9348 37.35 20.2174 34.7786 21.2609 31.6929L21.3913 30.8572H33.587V31.5643C33.3913 33.1072 33.0652 34.5857 32.5435 36C33.6522 36.1929 34.7609 36.3857 35.8044 36.5786C37.6304 37.0286 39.4565 37.5429 41.2826 38.1857C43.1087 38.8286 44.9348 39.5357 46.8913 40.4357C48.7174 41.3357 50.7391 42.4286 52.9565 43.65L47.4783 52.9714C43.8261 50.7857 40.3044 48.9857 36.913 47.5715C33.587 46.2857 30.0652 45.2572 26.2174 44.6143C25.8913 44.8714 25.5652 45.1286 25.3044 45.3215C20.3478 49.05 13.2391 51.4929 3.97826 52.65L0 43.65ZM86.1178 10.4786H67.4656V19.8H85.7917V29.7643H67.4656V39.0215H78.6178C80.5091 39.0215 82.27 38.9572 83.9656 38.7643C85.5309 38.6357 86.77 38.4429 87.6178 38.1214V47.7C86.7048 48.2143 85.4004 48.5357 83.7048 48.6643C81.9439 48.9215 79.9874 48.9857 77.77 48.9857H56.3784V0.51429H86.1178V10.4786ZM92.2483 51.75V0H104.313V51.75H92.2483Z" fill="#FF4646"/>
</svg>
