<svg width="16" height="16" viewBox="0 0 16 16" fill="none" xmlns="http://www.w3.org/2000/svg">
<path d="M15.3331 8.16654C15.3331 7.64653 15.2855 7.14654 15.197 6.6665H8.14941V9.50318H12.1766C12.0032 10.4198 11.476 11.1965 10.6835 11.7165V13.5565H13.1018C14.5168 12.2799 15.3331 10.3998 15.3331 8.16654Z" fill="#4285F4"/>
<path d="M8.1495 15.3336C10.1699 15.3336 11.8638 14.6769 13.1018 13.5569L10.6835 11.7169C10.0134 12.1569 9.15627 12.4169 8.1495 12.4169C6.20048 12.4169 4.55086 11.1269 3.96239 9.39355H1.4624V11.2935C2.69373 13.6902 5.22433 15.3336 8.1495 15.3336Z" fill="#34A853"/>
<path d="M3.96239 9.3932C3.81273 8.9532 3.72772 8.48321 3.72772 7.99987C3.72772 7.51653 3.81273 7.04654 3.96239 6.60654V4.70654H1.46239C0.955646 5.69654 0.666504 6.81656 0.666504 7.99987C0.666504 9.18318 0.955646 10.3032 1.46239 11.2932L3.96239 9.3932Z" fill="#FBBC04"/>
<path d="M8.1495 3.58319C9.24808 3.58319 10.2345 3.95316 11.01 4.67982L13.1563 2.57647C11.8604 1.39316 10.1665 0.666504 8.1495 0.666504C5.22433 0.666504 2.69373 2.30983 1.4624 4.70651L3.9624 6.6065C4.55086 4.8732 6.20048 3.58319 8.1495 3.58319Z" fill="#E94235"/>
</svg>
