<svg width="45" height="40" viewBox="0 0 45 40" fill="none" xmlns="http://www.w3.org/2000/svg">
<path d="M32.9442 2.68511C33.8721 2.29263 34.9428 2.7268 35.3354 3.65467L42.8499 21.4133C43.2424 22.3411 42.8092 23.4119 41.8813 23.8046L29.5611 29.0165C28.5655 27.9634 26.9639 27.5886 25.527 28.1965C24.0899 28.8047 23.2424 30.2159 23.3055 31.6641L11.5994 36.6181C10.6714 37.0107 9.60075 36.5775 9.20806 35.6495L1.69356 17.891C1.30098 16.963 1.73521 15.8924 2.66313 15.4997L14.3754 10.5423C15.3665 11.6382 16.9985 12.038 18.4606 11.4195C19.9229 10.8007 20.7733 9.35057 20.6767 7.87595L32.9442 2.68511Z" fill="#FFA7A7"/>
<path d="M32.9442 2.68511L32.7494 2.22461L32.7494 2.22463L32.9442 2.68511ZM35.3354 3.65467L35.7959 3.45983L35.7959 3.45981L35.3354 3.65467ZM42.8499 21.4133L43.3104 21.2185L43.3104 21.2184L42.8499 21.4133ZM41.8813 23.8046L42.0762 24.2651L42.0762 24.265L41.8813 23.8046ZM29.5611 29.0165L29.1978 29.36L29.4362 29.6123L29.7559 29.477L29.5611 29.0165ZM25.527 28.1965L25.3322 27.736L25.3322 27.736L25.527 28.1965ZM23.3055 31.6641L23.5003 32.1246L23.8201 31.9893L23.805 31.6424L23.3055 31.6641ZM11.5994 36.6181L11.7942 37.0786L11.7942 37.0786L11.5994 36.6181ZM9.20806 35.6495L8.74759 35.8444L8.7476 35.8444L9.20806 35.6495ZM1.69356 17.891L1.23308 18.0858L1.23309 18.0858L1.69356 17.891ZM2.66313 15.4997L2.85799 15.9602L2.85802 15.9602L2.66313 15.4997ZM14.3754 10.5423L14.7462 10.2069L14.5078 9.94331L14.1805 10.0819L14.3754 10.5423ZM18.4606 11.4195L18.6554 11.88L18.6555 11.88L18.4606 11.4195ZM20.6767 7.87595L20.4818 7.41548L20.1545 7.55398L20.1778 7.90863L20.6767 7.87595ZM32.9442 2.68511L33.139 3.14561C33.8125 2.86071 34.5899 3.17588 34.875 3.84954L35.3354 3.65467L35.7959 3.45981C35.2957 2.27773 33.9317 1.72454 32.7494 2.22461L32.9442 2.68511ZM35.3354 3.65467L34.875 3.84952L42.3895 21.6081L42.8499 21.4133L43.3104 21.2184L35.7959 3.45983L35.3354 3.65467ZM42.8499 21.4133L42.3894 21.608C42.6745 22.282 42.3597 23.0592 41.6865 23.3441L41.8813 23.8046L42.0762 24.265C43.2586 23.7646 43.8104 22.4003 43.3104 21.2185L42.8499 21.4133ZM41.8813 23.8046L41.6865 23.3441L29.3663 28.556L29.5611 29.0165L29.7559 29.477L42.0762 24.2651L41.8813 23.8046ZM29.5611 29.0165L29.9245 28.6731C28.7867 27.4695 26.963 27.0461 25.3322 27.736L25.527 28.1965L25.7218 28.657C26.9648 28.1311 28.3443 28.4572 29.1978 29.36L29.5611 29.0165ZM25.527 28.1965L25.3322 27.736C23.7013 28.4262 22.7338 30.0306 22.8059 31.6859L23.3055 31.6641L23.805 31.6424C23.7509 30.4011 24.4785 29.1831 25.7219 28.6569L25.527 28.1965ZM23.3055 31.6641L23.1106 31.2037L11.4045 36.1577L11.5994 36.6181L11.7942 37.0786L23.5003 32.1246L23.3055 31.6641ZM11.5994 36.6181L11.4045 36.1577C10.7306 36.4428 9.95347 36.128 9.66853 35.4547L9.20806 35.6495L8.7476 35.8444C9.24802 37.0269 10.6123 37.5787 11.7942 37.0786L11.5994 36.6181ZM9.20806 35.6495L9.66853 35.4547L2.15403 17.6961L1.69356 17.891L1.23309 18.0858L8.74759 35.8444L9.20806 35.6495ZM1.69356 17.891L2.15405 17.6961C1.8691 17.0226 2.18425 16.2453 2.85799 15.9602L2.66313 15.4997L2.46827 15.0393C1.28617 15.5395 0.732857 16.9034 1.23308 18.0858L1.69356 17.891ZM2.66313 15.4997L2.85802 15.9602L14.5703 11.0028L14.3754 10.5423L14.1805 10.0819L2.46823 15.0393L2.66313 15.4997ZM14.3754 10.5423L14.0046 10.8777C15.1373 12.1302 16.9958 12.582 18.6554 11.88L18.4606 11.4195L18.2658 10.959C17.0012 11.494 15.5958 11.1463 14.7462 10.2069L14.3754 10.5423ZM18.4606 11.4195L18.6555 11.88C20.3151 11.1777 21.286 9.52873 21.1756 7.84328L20.6767 7.87595L20.1778 7.90863C20.2605 9.17241 19.5306 10.4238 18.2658 10.959L18.4606 11.4195ZM20.6767 7.87595L20.8715 8.33643L33.1391 3.14558L32.9442 2.68511L32.7494 2.22463L20.4818 7.41548L20.6767 7.87595Z" fill="#FF7474"/>
<path d="M9.03067 23.2943L8.6988 22.51L12.8502 20.7533L13.1821 21.5375L11.5776 22.2165L13.4501 26.6412L12.5148 27.0371L10.6423 22.6123L9.03067 23.2943ZM14.3352 20.1248L16.5396 25.3339L15.6042 25.7297L13.3999 20.5206L14.3352 20.1248ZM19.3763 20.0614C18.9999 19.4827 18.3476 19.3346 17.7144 19.6025C16.8619 19.9633 16.5346 20.8738 17.0375 22.0522C17.5408 23.2517 18.4183 23.6311 19.2672 23.2718C19.886 23.01 20.2399 22.453 20.107 21.7882L21.0495 21.3893C21.3288 22.4503 20.843 23.5976 19.6091 24.1197C18.2349 24.7013 16.8023 24.1326 16.095 22.4511C15.3789 20.769 15.9804 19.3438 17.3438 18.7668C18.495 18.2796 19.6667 18.5727 20.3188 19.6626L19.3763 20.0614ZM22.4019 22.853L20.1975 17.644L21.1328 17.2482L22.1467 19.6441L22.2187 19.6136L23.2409 16.3561L24.3849 15.872L23.3599 19.0628L26.6108 21.0719L25.4812 21.5499L22.9731 19.973L22.6795 20.9031L23.3372 22.4572L22.4019 22.853ZM27.0022 20.9062L24.7979 15.6972L28.1866 14.2632L28.5185 15.0474L26.065 16.0856L26.6679 17.5102L28.9415 16.5481L29.2733 17.3323L26.9998 18.2944L27.6026 19.719L30.0704 18.6747L30.4054 19.4661L27.0022 20.9062ZM29.0034 14.8422L28.6715 14.058L32.8229 12.3012L33.1548 13.0854L31.5504 13.7644L33.4228 18.1891L32.4875 18.585L30.615 14.1602L29.0034 14.8422Z" fill="white"/>
</svg>
