<svg width="16" height="16" viewBox="0 0 16 16" fill="none" xmlns="http://www.w3.org/2000/svg">
<circle cx="7.99984" cy="7.99984" r="7.33333" fill="#FEE500"/>
<path d="M7.99669 3.84131C5.50772 3.84131 3.50049 5.44708 3.50049 7.3965C3.50049 8.66186 4.3355 9.76985 5.58801 10.4025L5.16408 11.9858C5.15609 12.0096 5.15486 12.035 5.16053 12.0594C5.1662 12.0838 5.17855 12.1062 5.1962 12.1239C5.22193 12.1466 5.25503 12.1592 5.28933 12.1592C5.31778 12.157 5.34476 12.1457 5.36641 12.1271L7.19058 10.8971C7.45985 10.9343 7.73129 10.9536 8.00311 10.9549C10.4889 10.9549 12.4993 9.34913 12.4993 7.3965C12.4993 5.44387 10.4824 3.84131 7.99669 3.84131Z" fill="#392020"/>
<path d="M5.07425 6.83417H4.58288C4.52198 6.83594 4.46183 6.82034 4.40945 6.7892C4.3862 6.77464 4.36621 6.75541 4.35074 6.73275C4.33526 6.71009 4.32464 6.68448 4.31953 6.65752C4.31797 6.64043 4.31797 6.62325 4.31953 6.60616C4.318 6.57418 4.32421 6.54228 4.33763 6.51321C4.35105 6.48414 4.37128 6.45874 4.39661 6.43915C4.4526 6.39861 4.52018 6.37718 4.5893 6.37811H6.06983C6.13122 6.37596 6.19178 6.39279 6.24326 6.4263C6.26706 6.44022 6.28747 6.45927 6.30302 6.48204C6.31857 6.50481 6.32888 6.53075 6.33318 6.55798C6.33475 6.574 6.33475 6.59014 6.33318 6.60616C6.3347 6.63861 6.3285 6.67094 6.31511 6.70053C6.30171 6.73011 6.28149 6.75608 6.25611 6.77635C6.20148 6.81685 6.13455 6.83728 6.06662 6.83417H5.59131V8.52346C5.59324 8.55945 5.58767 8.59543 5.57496 8.62915C5.56224 8.66288 5.54266 8.69361 5.51744 8.71936C5.49327 8.74399 5.46421 8.76329 5.43213 8.77601C5.40005 8.78873 5.36566 8.79459 5.33117 8.79322C5.27086 8.79494 5.21182 8.77567 5.16417 8.73865C5.11881 8.70249 5.08802 8.65115 5.07746 8.59411C5.07429 8.57066 5.07429 8.54691 5.07746 8.52346L5.07425 6.83417Z" fill="#FEE500"/>
<path d="M6.47471 6.50373C6.48884 6.45088 6.52201 6.40512 6.56785 6.37526C6.61669 6.34758 6.67234 6.33422 6.72843 6.33672H6.85047C6.90998 6.33459 6.96891 6.34905 7.02068 6.37847C7.07554 6.41536 7.11452 6.47154 7.12987 6.53584L7.77219 8.35038C7.78884 8.39772 7.80278 8.446 7.81394 8.49493C7.81503 8.51525 7.81503 8.5356 7.81394 8.55593C7.81502 8.58723 7.80926 8.61839 7.79706 8.64723C7.78486 8.67608 7.7665 8.70192 7.74328 8.72294C7.72078 8.746 7.69377 8.76418 7.66393 8.77633C7.63409 8.78849 7.60207 8.79435 7.56986 8.79358C7.52032 8.79851 7.47057 8.78663 7.42862 8.75983C7.38668 8.73303 7.35497 8.69288 7.33862 8.64586L7.20374 8.25085H6.3591L6.22421 8.64586C6.20826 8.69381 6.17617 8.73473 6.13342 8.76167C6.09067 8.78861 6.0399 8.79988 5.98976 8.79358C5.93546 8.79501 5.88226 8.77802 5.83882 8.7454C5.79649 8.71174 5.76794 8.66379 5.75853 8.61054C5.75683 8.59238 5.75683 8.57409 5.75853 8.55593C5.75302 8.52405 5.75302 8.49148 5.75853 8.4596C5.75853 8.42428 5.78101 8.38571 5.79386 8.35038L6.47471 6.50373ZM6.79587 6.92446L6.49077 7.88794H7.09775L6.79587 6.92446Z" fill="#FEE500"/>
<path d="M7.88749 6.60649C7.88422 6.53442 7.90962 6.46399 7.95814 6.41059C7.9828 6.38572 8.01241 6.36627 8.04505 6.35355C8.07769 6.34083 8.11263 6.33507 8.14762 6.33669C8.20779 6.33599 8.26649 6.3552 8.31462 6.3913C8.35923 6.42898 8.38886 6.48138 8.39813 6.53902C8.40129 6.56139 8.40129 6.58412 8.39813 6.60649V8.29578H9.28131C9.34253 8.29498 9.4027 8.31167 9.45473 8.34393C9.47812 8.35834 9.49821 8.37754 9.5137 8.40022C9.52919 8.42291 9.53974 8.44858 9.54466 8.47561C9.54466 8.47561 9.54466 8.50773 9.54466 8.52379C9.54618 8.55577 9.53997 8.58763 9.52656 8.6167C9.51314 8.64578 9.49291 8.67121 9.46758 8.6908C9.41159 8.73135 9.34401 8.75273 9.27489 8.7518H8.18937C8.12024 8.75625 8.05152 8.73825 7.99347 8.70044C7.94154 8.66162 7.90694 8.60395 7.89712 8.53987C7.89477 8.50458 7.89477 8.46915 7.89712 8.43386L7.88749 6.60649Z" fill="#FEE500"/>
<path d="M9.6027 6.60627C9.60078 6.5344 9.62601 6.46446 9.67336 6.41036C9.72149 6.36663 9.78323 6.3408 9.84817 6.33729C9.91311 6.33378 9.97728 6.35278 10.0298 6.39108C10.0754 6.42842 10.1062 6.48079 10.1166 6.5388C10.1181 6.56125 10.1181 6.58381 10.1166 6.60627V7.39308L10.9291 6.45529C10.9604 6.4233 10.9936 6.3933 11.0286 6.3654C11.0616 6.34575 11.0995 6.33571 11.1378 6.33647C11.194 6.33616 11.2489 6.35297 11.2952 6.38465C11.317 6.39935 11.3357 6.41832 11.35 6.44039C11.3644 6.46247 11.3741 6.48719 11.3787 6.51312C11.38 6.51947 11.38 6.52605 11.3787 6.53241C11.3771 6.53982 11.3771 6.54746 11.3787 6.55487C11.3786 6.58866 11.3697 6.62187 11.353 6.65123C11.336 6.68232 11.3155 6.71137 11.292 6.73791L10.7589 7.32244L11.4012 8.31802V8.35013C11.4345 8.39615 11.4605 8.4471 11.4783 8.5011V8.51713C11.482 8.55434 11.4766 8.59191 11.4626 8.62659C11.4486 8.66127 11.4265 8.69203 11.398 8.71625C11.3444 8.75674 11.2789 8.77823 11.2117 8.77729C11.1671 8.77913 11.1228 8.76913 11.0832 8.74836C11.0405 8.71967 11.0052 8.68113 10.9805 8.63596L10.3831 7.67249L10.0973 7.97118V8.50749C10.0992 8.57935 10.074 8.6493 10.0266 8.70339C10.0012 8.7282 9.97106 8.74757 9.93792 8.76028C9.90478 8.77298 9.8694 8.77877 9.83394 8.77729C9.77468 8.77853 9.71681 8.75923 9.67015 8.72268C9.62478 8.68652 9.59399 8.63522 9.58343 8.57817C9.58026 8.55473 9.58026 8.53093 9.58343 8.50749L9.6027 6.60627Z" fill="#FEE500"/>
</svg>
